<?xml version="1.0" encoding="UTF-8"?>
<svg version="1.1" xmlns="http://www.w3.org/2000/svg" width="128" height="128">
<path d="M0 0 C0.80339813 -0.00419449 1.60679626 -0.00838898 2.43453979 -0.01271057 C3.30690781 -0.00709106 4.17927582 -0.00147156 5.07807922 0.00431824 C6.00364624 0.00241989 6.92921326 0.00052155 7.88282776 -0.00143433 C10.94059226 -0.0051377 13.99811905 0.00555393 17.05586243 0.01676941 C19.17767306 0.01796132 21.29948422 0.01841435 23.42129517 0.01815796 C27.86568001 0.01972194 32.3099842 0.02800681 36.75434875 0.04142761 C42.46454627 0.05844833 48.17465539 0.06224103 53.8848753 0.06148243 C58.26416881 0.06175366 62.64344283 0.06722679 67.02272987 0.07448387 C69.12917241 0.07767578 71.23561717 0.07963916 73.342062 0.08037758 C76.27754399 0.08253388 79.21293015 0.09126171 82.14839172 0.10197449 C83.46605278 0.10129471 83.46605278 0.10129471 84.81033325 0.1006012 C90.80466736 0.13276184 90.80466736 0.13276184 91.91914368 1.24723816 C92.02120606 2.97786952 92.04998437 4.71281976 92.05195618 6.44645691 C92.05397034 7.61080261 92.0559845 8.77514832 92.05805969 9.97477722 C92.05346741 11.28156433 92.04887512 12.58835144 92.04414368 13.93473816 C92.04292511 14.60420471 92.04170654 15.27367126 92.04045105 15.96342468 C92.0111055 30.07965851 91.78659706 44.19448901 91.54481506 58.3084259 C91.50269143 60.76818163 91.46187983 63.22796017 91.42237854 65.6877594 C91.36513387 69.18165521 91.30137254 72.67536963 91.23554993 76.16911316 C91.21882736 77.22824417 91.2021048 78.28737518 91.18487549 79.37860107 C91.16494034 80.35715561 91.14500519 81.33571014 91.12446594 82.34391785 C91.10892166 83.19782104 91.09337738 84.05172424 91.07736206 84.9315033 C90.92553349 87.15371486 90.53361817 89.11113721 89.91914368 91.24723816 C80.74887078 92.40161841 71.63904525 92.39310102 62.41523743 92.38005066 C60.7247313 92.38072571 59.03422528 92.38169741 57.34371948 92.38294983 C53.8161984 92.38441692 50.28870279 92.38230394 46.76118469 92.37760925 C42.26039067 92.37190818 37.75965625 92.37519968 33.2588644 92.38118172 C29.77312783 92.38481037 26.28740518 92.38363826 22.80166817 92.38105392 C21.14282791 92.38039125 19.48398636 92.38118978 17.82514763 92.38353348 C1.16309934 92.40191686 1.16309934 92.40191686 -6.08085632 91.24723816 C-8.13077262 89.19732186 -7.26636131 84.87650701 -7.28617859 82.05558777 C-7.29607819 81.19712753 -7.30597778 80.3386673 -7.31617737 79.45419312 C-7.34788941 76.60268457 -7.37258796 73.75115934 -7.39726257 70.89958191 C-7.41782373 68.92802485 -7.43881997 66.95647228 -7.4602356 64.98492432 C-7.51554285 59.78502531 -7.56491383 54.58508596 -7.61308289 49.38511658 C-7.66323489 44.08326102 -7.71895377 38.78146436 -7.7742157 33.47966003 C-7.88190305 23.068903 -7.98332437 12.65809493 -8.08085632 2.24723816 C-5.25705794 0.65397212 -3.23683882 -0.00253505 0 0 Z " fill="#7D7D71" transform="translate(22.080856323242188,21.752761840820313)"/>
<path d="M0 0 C5.35081749 1.01070997 10.36556324 1.98761611 15 5 C15.6875 7 15.6875 7 16 9 C18.11084208 11.55005456 20.08389223 12.61904486 23.1875 13.6875 C23.90292969 13.93886719 24.61835937 14.19023438 25.35546875 14.44921875 C25.89816406 14.63097656 26.44085938 14.81273438 27 15 C27 14.34 27 13.68 27 13 C26.01 12.67 25.02 12.34 24 12 C24.33 11.01 24.66 10.02 25 9 C26.6256807 9.30893932 28.25052748 9.6222695 29.875 9.9375 C30.77992187 10.11152344 31.68484375 10.28554688 32.6171875 10.46484375 C35 11 35 11 37 12 C37 14.31 37 16.62 37 19 C37.66386719 19.19335938 38.32773438 19.38671875 39.01171875 19.5859375 C47.78207381 22.17223199 47.78207381 22.17223199 52 24 C52 24.66 52 25.32 52 26 C53.485 26.495 53.485 26.495 55 27 C55.12648221 32.56521739 55.12648221 32.56521739 54.5 34.71875 C53.77008907 38.0489686 53.89584253 41.35972287 53.9375 44.75 C53.94201172 45.44738281 53.94652344 46.14476562 53.95117188 46.86328125 C53.9628998 48.57555803 53.98083347 50.28779033 54 52 C53.34 52 52.68 52 52 52 C52 52.99 52 53.98 52 55 C49 54 49 54 48 53 C47.67 55.31 47.34 57.62 47 60 C49.31 60 51.62 60 54 60 C54 60.33 54 60.66 54 61 C45.21655195 62.26573157 36.44539274 62.14529535 27.59375 62.1328125 C25.90181464 62.13348738 24.20987937 62.13445893 22.51794434 62.13571167 C18.98444692 62.13717999 15.45097491 62.13506204 11.91748047 62.13037109 C7.4088107 62.12467435 2.90020049 62.127958 -1.6084671 62.13394356 C-5.09849489 62.13757261 -8.58850876 62.13639984 -12.07853699 62.13381577 C-13.74016833 62.13315298 -15.40180097 62.13395204 -17.06343079 62.13629532 C-25.0989341 62.14514286 -33.02735763 62.14889108 -41 61 C-41.07419134 56.78250781 -41.1286204 52.56536189 -41.16479492 48.34741211 C-41.17987589 46.91277448 -41.2003438 45.47818292 -41.22631836 44.04370117 C-41.26273437 41.98084141 -41.27973243 39.91859142 -41.29296875 37.85546875 C-41.3086792 36.61434326 -41.32438965 35.37321777 -41.34057617 34.09448242 C-41 31 -41 31 -39.6809082 29.08325195 C-37.1573382 27.45695128 -34.92209606 27.8051936 -32 28 C-32 28.66 -32 29.32 -32 30 C-30.35 30 -28.7 30 -27 30 C-26.67 30.99 -26.34 31.98 -26 33 C-25.0925 33 -24.185 33 -23.25 33 C-20.83333333 33 -18.41666667 33 -16 33 C-15.67 33.66 -15.34 34.32 -15 35 C-13.68 35 -12.36 35 -11 35 C-11.66 36.98 -12.32 38.96 -13 41 C-10.60588163 42.29493195 -8.2098212 43.58602172 -5.8125 44.875 C-5.13896484 45.23980469 -4.46542969 45.60460937 -3.77148438 45.98046875 C-0.2433872 47.87359406 3.23455133 49.61080534 7 51 C7.33 49.35 7.66 47.7 8 46 C6.02 46.66 4.04 47.32 2 48 C2.66 47.01 3.32 46.02 4 45 C0.71303767 44.20046862 -0.71023192 43.90341064 -4 45 C-4 44.34 -4 43.68 -4 43 C-3.34 43 -2.68 43 -2 43 C-2.33 42.34 -2.66 41.68 -3 41 C-6.465 41.495 -6.465 41.495 -10 42 C-10 41.34 -10 40.68 -10 40 C-8 38.375 -8 38.375 -6 37 C-6.639375 36.71125 -7.27875 36.4225 -7.9375 36.125 C-10 35 -10 35 -11 33 C-13.52733235 32.34444881 -13.52733235 32.34444881 -16 32 C-16.33 30.02 -16.66 28.04 -17 26 C-15.35 25.34 -13.7 24.68 -12 24 C-12 21.03 -12 18.06 -12 15 C-11.01 14.67 -10.02 14.34 -9 14 C-9 14.66 -9 15.32 -9 16 C-8.67 16.33 -8.34 16.66 -8 17 C-6.05243411 20.24098751 -5.64265984 23.00276223 -5.375 26.75 C-5.30023438 27.73484375 -5.22546875 28.7196875 -5.1484375 29.734375 C-5.09945312 30.48203125 -5.05046875 31.2296875 -5 32 C-0.98195309 32.84098656 2.01803543 33.05404945 6 32 C6.495 36.95 6.495 36.95 7 42 C8.464375 41.938125 9.92875 41.87625 11.4375 41.8125 C16.76630273 41.78969485 21.09520425 43.0096481 26 45 C27.65 43.35 29.3 41.7 31 40 C30.401875 39.855625 29.80375 39.71125 29.1875 39.5625 C27.43849596 39.1127561 25.71322977 38.57107659 24 38 C24 36.68 24 35.36 24 34 C23.67 33.67 23.34 33.34 23 33 C22.75 30.5625 22.75 30.5625 23 28 C23.99 27.34 24.98 26.68 26 26 C25.01 25.34 24.02 24.68 23 24 C23.33 23.34 23.66 22.68 24 22 C25.65 22 27.3 22 29 22 C29 20.68 29 19.36 29 18 C26.36 18 23.72 18 21 18 C21.08378906 18.75925781 21.16757813 19.51851562 21.25390625 20.30078125 C21.40666016 21.79158203 21.40666016 21.79158203 21.5625 23.3125 C21.71912109 24.79169922 21.71912109 24.79169922 21.87890625 26.30078125 C22 29 22 29 21 32 C18.29120665 33.35439668 15.99066732 33.06501451 13 33 C13 32.34 13 31.68 13 31 C10.69 31 8.38 31 6 31 C6.33 30.34 6.66 29.68 7 29 C6.01 28.67 5.02 28.34 4 28 C4.495 26.515 4.495 26.515 5 25 C6.98 25.33 8.96 25.66 11 26 C11.33 23.03 11.66 20.06 12 17 C10.5975 16.7525 9.195 16.505 7.75 16.25 C3.57926169 15.35208754 1.96206985 14.06421019 -1 11 C-4.167832 10.66551741 -4.167832 10.66551741 -7 11 C-6.21625 10.4225 -5.4325 9.845 -4.625 9.25 C-2.17287895 7.14818196 -1.05864355 5.98345001 0 3 C0 2.01 0 1.02 0 0 Z " fill="#6E6D64" transform="translate(57,52)"/>
<path d="M0 0 C5.35081749 1.01070997 10.36556324 1.98761611 15 5 C15.6875 7 15.6875 7 16 9 C18.11084208 11.55005456 20.08389223 12.61904486 23.1875 13.6875 C23.90292969 13.93886719 24.61835937 14.19023438 25.35546875 14.44921875 C25.89816406 14.63097656 26.44085938 14.81273438 27 15 C27 14.34 27 13.68 27 13 C26.01 12.67 25.02 12.34 24 12 C24.33 11.01 24.66 10.02 25 9 C26.6256807 9.30893932 28.25052748 9.6222695 29.875 9.9375 C30.77992187 10.11152344 31.68484375 10.28554688 32.6171875 10.46484375 C35 11 35 11 37 12 C37 14.31 37 16.62 37 19 C37.66386719 19.19335938 38.32773438 19.38671875 39.01171875 19.5859375 C47.78207381 22.17223199 47.78207381 22.17223199 52 24 C50.41070782 28.02495297 47.7297495 30.37297655 44.5625 33.25 C43.59441406 34.14203125 42.62632813 35.0340625 41.62890625 35.953125 C39 38 39 38 36 38 C35.78859375 38.54785156 35.5771875 39.09570312 35.359375 39.66015625 C33.51704947 42.83128554 30.96425806 45.03107852 28.25 47.4375 C27.73695312 47.90220703 27.22390625 48.36691406 26.6953125 48.84570312 C25.65890174 49.77925402 24.61122463 50.70044689 23.55273438 51.60888672 C21.97077202 52.97647664 21.97077202 52.97647664 20.58789062 54.56689453 C19.171875 56.03515625 19.171875 56.03515625 16 58 C8.56489418 57.50575886 0.98507107 51.99761565 -5.375 48.5 C-6.50663574 47.88431152 -7.63827148 47.26862305 -8.80419922 46.63427734 C-18.63574817 41.26014105 -28.35185507 35.69589279 -38 30 C-37.34 29.34 -36.68 28.68 -36 28 C-34.68 28 -33.36 28 -32 28 C-32 28.66 -32 29.32 -32 30 C-30.35 30 -28.7 30 -27 30 C-26.67 30.99 -26.34 31.98 -26 33 C-25.0925 33 -24.185 33 -23.25 33 C-20.83333333 33 -18.41666667 33 -16 33 C-15.67 33.66 -15.34 34.32 -15 35 C-13.68 35 -12.36 35 -11 35 C-11.66 36.98 -12.32 38.96 -13 41 C-10.60588163 42.29493195 -8.2098212 43.58602172 -5.8125 44.875 C-5.13896484 45.23980469 -4.46542969 45.60460937 -3.77148438 45.98046875 C-0.2433872 47.87359406 3.23455133 49.61080534 7 51 C7.33 49.35 7.66 47.7 8 46 C6.02 46.66 4.04 47.32 2 48 C2.66 47.01 3.32 46.02 4 45 C0.71303767 44.20046862 -0.71023192 43.90341064 -4 45 C-4 44.34 -4 43.68 -4 43 C-3.34 43 -2.68 43 -2 43 C-2.33 42.34 -2.66 41.68 -3 41 C-6.465 41.495 -6.465 41.495 -10 42 C-10 41.34 -10 40.68 -10 40 C-8 38.375 -8 38.375 -6 37 C-6.639375 36.71125 -7.27875 36.4225 -7.9375 36.125 C-10 35 -10 35 -11 33 C-13.52733235 32.34444881 -13.52733235 32.34444881 -16 32 C-16.33 30.02 -16.66 28.04 -17 26 C-15.35 25.34 -13.7 24.68 -12 24 C-12 21.03 -12 18.06 -12 15 C-11.01 14.67 -10.02 14.34 -9 14 C-9 14.66 -9 15.32 -9 16 C-8.67 16.33 -8.34 16.66 -8 17 C-6.05243411 20.24098751 -5.64265984 23.00276223 -5.375 26.75 C-5.30023438 27.73484375 -5.22546875 28.7196875 -5.1484375 29.734375 C-5.09945312 30.48203125 -5.05046875 31.2296875 -5 32 C-0.98195309 32.84098656 2.01803543 33.05404945 6 32 C6.495 36.95 6.495 36.95 7 42 C8.464375 41.938125 9.92875 41.87625 11.4375 41.8125 C16.76630273 41.78969485 21.09520425 43.0096481 26 45 C27.65 43.35 29.3 41.7 31 40 C30.401875 39.855625 29.80375 39.71125 29.1875 39.5625 C27.43849596 39.1127561 25.71322977 38.57107659 24 38 C24 36.68 24 35.36 24 34 C23.67 33.67 23.34 33.34 23 33 C22.75 30.5625 22.75 30.5625 23 28 C23.99 27.34 24.98 26.68 26 26 C25.01 25.34 24.02 24.68 23 24 C23.33 23.34 23.66 22.68 24 22 C25.65 22 27.3 22 29 22 C29 20.68 29 19.36 29 18 C26.36 18 23.72 18 21 18 C21.08378906 18.75925781 21.16757813 19.51851562 21.25390625 20.30078125 C21.40666016 21.79158203 21.40666016 21.79158203 21.5625 23.3125 C21.71912109 24.79169922 21.71912109 24.79169922 21.87890625 26.30078125 C22 29 22 29 21 32 C18.29120665 33.35439668 15.99066732 33.06501451 13 33 C13 32.34 13 31.68 13 31 C10.69 31 8.38 31 6 31 C6.33 30.34 6.66 29.68 7 29 C6.01 28.67 5.02 28.34 4 28 C4.495 26.515 4.495 26.515 5 25 C6.98 25.33 8.96 25.66 11 26 C11.33 23.03 11.66 20.06 12 17 C10.5975 16.7525 9.195 16.505 7.75 16.25 C3.57926169 15.35208754 1.96206985 14.06421019 -1 11 C-4.167832 10.66551741 -4.167832 10.66551741 -7 11 C-6.21625 10.4225 -5.4325 9.845 -4.625 9.25 C-2.17287895 7.14818196 -1.05864355 5.98345001 0 3 C0 2.01 0 1.02 0 0 Z " fill="#38302D" transform="translate(57,52)"/>
<path d="M0 0 C0.55816406 0.25265625 1.11632812 0.5053125 1.69140625 0.765625 C1.81788846 6.33084239 1.81788846 6.33084239 1.19140625 8.484375 C0.46149532 11.8145936 0.58724878 15.12534787 0.62890625 18.515625 C0.63341797 19.21300781 0.63792969 19.91039063 0.64257812 20.62890625 C0.65430605 22.34118303 0.67223972 24.05341533 0.69140625 25.765625 C0.03140625 25.765625 -0.62859375 25.765625 -1.30859375 25.765625 C-1.30859375 26.755625 -1.30859375 27.745625 -1.30859375 28.765625 C-4.30859375 27.765625 -4.30859375 27.765625 -5.30859375 26.765625 C-5.63859375 29.075625 -5.96859375 31.385625 -6.30859375 33.765625 C-3.99859375 33.765625 -1.68859375 33.765625 0.69140625 33.765625 C0.69140625 34.095625 0.69140625 34.425625 0.69140625 34.765625 C-13.68229486 34.885575 -27.96366748 34.71293145 -42.30859375 33.765625 C-41.97859375 32.775625 -41.64859375 31.785625 -41.30859375 30.765625 C-40.58285156 30.68570313 -39.85710937 30.60578125 -39.109375 30.5234375 C-35.64229581 29.58534355 -34.08597283 28.10916888 -31.49609375 25.640625 C-30.20445313 24.42826172 -30.20445313 24.42826172 -28.88671875 23.19140625 C-28.0359375 22.39089844 -27.18515625 21.59039062 -26.30859375 20.765625 C-24.15250321 18.88785334 -21.98196881 17.02887983 -19.8046875 15.17578125 C-18.19063657 13.81648549 -18.19063657 13.81648549 -17.30859375 11.765625 C-16.19677734 11.10820313 -16.19677734 11.10820313 -15.0625 10.4375 C-11.08210215 8.02103152 -8.02447666 4.77841627 -4.7109375 1.53125 C-2.30859375 -0.234375 -2.30859375 -0.234375 0 0 Z " fill="#646050" transform="translate(110.30859375,78.234375)"/>
<path d="M0 0 C2.625 0.6875 2.625 0.6875 5 2 C5.33 2.99 5.66 3.98 6 5 C6.63808594 5.06058594 7.27617188 5.12117188 7.93359375 5.18359375 C8.75988281 5.26738281 9.58617187 5.35117188 10.4375 5.4375 C11.67306641 5.55931641 11.67306641 5.55931641 12.93359375 5.68359375 C15 6 15 6 16 7 C15.91062197 8.52519276 15.75462854 10.04681929 15.5625 11.5625 C15.46066406 12.38878906 15.35882813 13.21507813 15.25390625 14.06640625 C15.17011719 14.70449219 15.08632812 15.34257813 15 16 C11.98968256 16.93423645 11.13349732 17.04449911 8 16 C7.67 16.66 7.34 17.32 7 18 C8.32 18.33 9.64 18.66 11 19 C11 19.33 11 19.66 11 20 C12.65 20.33 14.3 20.66 16 21 C16 21.66 16 22.32 16 23 C19.96 22.505 19.96 22.505 24 22 C24 17.38 24 12.76 24 8 C30 7 30 7 32 8 C32 9.32 32 10.64 32 12 C30.35 12 28.7 12 27 12 C27 12.66 27 13.32 27 14 C28.9600281 15.63676257 28.9600281 15.63676257 31 17 C29.68 17.33 28.36 17.66 27 18 C26.79877415 21.62206536 27.10834925 23.88433995 29 27 C30.44754255 28.44754255 32.03962913 28.55733561 34 29 C34 32 34 32 32.1875 34.375 C28.38133202 36.31539936 27.64386468 35.9259195 23.6875 34.75 C22.73488281 34.43804687 21.78226563 34.12609375 20.80078125 33.8046875 C17.05572791 32.72870286 13.87057572 32.85664534 10 33 C9 32 9 32 8.90234375 29.71484375 C8.91394531 28.79832031 8.92554688 27.88179687 8.9375 26.9375 C8.94652344 26.01839844 8.95554687 25.09929687 8.96484375 24.15234375 C8.97644531 23.44207031 8.98804688 22.73179688 9 22 C7.39125 22.556875 7.39125 22.556875 5.75 23.125 C2 24 2 24 -0.375 23.625 C-3.09590796 20.90409204 -2.75795565 17.75168748 -3 14 C-1.68 13.34 -0.36 12.68 1 12 C0.73343428 9.06556598 0.73343428 9.06556598 0 6 C-0.99 5.34 -1.98 4.68 -3 4 C-3 3.34 -3 2.68 -3 2 C-2.01 1.34 -1.02 0.68 0 0 Z " fill="#997550" transform="translate(54,62)"/>
<path d="M0 0 C5.35081749 1.01070997 10.36556324 1.98761611 15 5 C15.6875 7 15.6875 7 16 9 C18.11084208 11.55005456 20.08389223 12.61904486 23.1875 13.6875 C24.26064453 14.06455078 24.26064453 14.06455078 25.35546875 14.44921875 C25.89816406 14.63097656 26.44085938 14.81273438 27 15 C27 14.34 27 13.68 27 13 C26.01 12.67 25.02 12.34 24 12 C24.33 11.01 24.66 10.02 25 9 C26.6256807 9.30893932 28.25052748 9.6222695 29.875 9.9375 C30.77992187 10.11152344 31.68484375 10.28554688 32.6171875 10.46484375 C35 11 35 11 37 12 C37 14.31 37 16.62 37 19 C37.66 19.33 38.32 19.66 39 20 C37.35 20.33 35.7 20.66 34 21 C34 19.68 34 18.36 34 17 C33.01 17.33 32.02 17.66 31 18 C30.74969023 20.41619823 30.74969023 20.41619823 31 23 C31.99 23.66 32.98 24.32 34 25 C33.67 25.66 33.34 26.32 33 27 C37.12973628 26.43260132 37.12973628 26.43260132 41 25 C40 28 40 28 37.6875 29.375 C35 30 35 30 32.6875 28.625 C32.130625 28.08875 31.57375 27.5525 31 27 C31.495 29.475 31.495 29.475 32 32 C31.34 32 30.68 32 30 32 C28 29 28 29 28 26 C26.35 25.67 24.7 25.34 23 25 C23.33 24.01 23.66 23.02 24 22 C25.65 22 27.3 22 29 22 C29 20.68 29 19.36 29 18 C26.36 18 23.72 18 21 18 C21.12568359 19.13888672 21.12568359 19.13888672 21.25390625 20.30078125 C21.35574219 21.29464844 21.45757812 22.28851563 21.5625 23.3125 C21.66691406 24.29863281 21.77132812 25.28476563 21.87890625 26.30078125 C22 29 22 29 21 32 C18.29120665 33.35439668 15.99066732 33.06501451 13 33 C13 32.34 13 31.68 13 31 C10.69 31 8.38 31 6 31 C6.33 30.34 6.66 29.68 7 29 C6.01 28.67 5.02 28.34 4 28 C4.33 27.01 4.66 26.02 5 25 C6.98 25.33 8.96 25.66 11 26 C11.33 23.03 11.66 20.06 12 17 C10.5975 16.7525 9.195 16.505 7.75 16.25 C3.57926169 15.35208754 1.96206985 14.06421019 -1 11 C-4.167832 10.66551741 -4.167832 10.66551741 -7 11 C-6.21625 10.4225 -5.4325 9.845 -4.625 9.25 C-2.17287895 7.14818196 -1.05864355 5.98345001 0 3 C0 2.01 0 1.02 0 0 Z " fill="#594F45" transform="translate(57,52)"/>
<path d="M0 0 C0.99 0 1.98 0 3 0 C3 1.32 3 2.64 3 4 C3.928125 3.7525 4.85625 3.505 5.8125 3.25 C11.25409792 2.41024723 16.07600474 4.92533292 21 7 C18.53624434 13.03972103 13.1514685 17.24542441 8 21 C4.88311267 22.07929484 2.26853329 22.20903411 -1 22 C-2.7634375 22.0309375 -2.7634375 22.0309375 -4.5625 22.0625 C-5.366875 22.041875 -6.17125 22.02125 -7 22 C-6.79375 21.38125 -6.5875 20.7625 -6.375 20.125 C-6.25125 19.42375 -6.1275 18.7225 -6 18 C-6.66 17.34 -7.32 16.68 -8 16 C-8.125 13.375 -8.125 13.375 -8 11 C-6.35 10.67 -4.7 10.34 -3 10 C-2.34 11.65 -1.68 13.3 -1 15 C-0.34 15 0.32 15 1 15 C0.34 14.01 -0.32 13.02 -1 12 C-0.67 11.01 -0.34 10.02 0 9 C0.556875 9.53625 1.11375 10.0725 1.6875 10.625 C2.450625 11.07875 3.21375 11.5325 4 12 C6.73398135 11.29042763 6.73398135 11.29042763 9 10 C8.01 10.33 7.02 10.66 6 11 C3.8125 10.5625 3.8125 10.5625 2 10 C2 9.34 2 8.68 2 8 C1.01 7.34 0.02 6.68 -1 6 C-1.25 3.4375 -1.25 3.4375 -1 1 C-0.67 0.67 -0.34 0.34 0 0 Z " fill="#332B27" transform="translate(88,69)"/>
<path d="M0 0 C0 1.32 0 2.64 0 4 C-1.98 4 -3.96 4 -6 4 C-6 7.96 -6 11.92 -6 16 C-7.32 16 -8.64 16 -10 16 C-10 12.04 -10 8.08 -10 4 C-11.98 4 -13.96 4 -16 4 C-16 4.66 -16 5.32 -16 6 C-17.65 6 -19.3 6 -21 6 C-21 5.34 -21 4.68 -21 4 C-22.65 4.33 -24.3 4.66 -26 5 C-26 7.64 -26 10.28 -26 13 C-22.7 12.67 -19.4 12.34 -16 12 C-16 12.99 -16 13.98 -16 15 C-19.66244303 17.34396354 -22.72394153 17.52512999 -27 17 C-29.9375 15.0625 -29.9375 15.0625 -32 12 C-32.39770984 8.9508912 -32.29947785 6.0546741 -32 3 C-27.09994488 0.1999685 -23.4220236 -0.90582978 -17.875 0.5625 C-15.53970253 1.10740274 -14.30212419 0.65774977 -12 0 C-7.6666336 -0.7878848 -4.27369805 -1.16555401 0 0 Z " fill="#35362D" transform="translate(83,30)"/>
<path d="M0 0 C0.66 0 1.32 0 2 0 C2 0.66 2 1.32 2 2 C2.33 2.33 2.66 2.66 3 3 C4.94756589 6.24098751 5.35734016 9.00276223 5.625 12.75 C5.69976562 13.73484375 5.77453125 14.7196875 5.8515625 15.734375 C5.90054688 16.48203125 5.94953125 17.2296875 6 18 C9.94476647 18.80688405 11.99998285 19.00000429 16 18 C16 21.3 16 24.6 16 28 C7.45 24.675 7.45 24.675 5 21 C3.68 21 2.36 21 1 21 C0.67 20.34 0.34 19.68 0 19 C-2.52733235 18.34444881 -2.52733235 18.34444881 -5 18 C-5.33 16.02 -5.66 14.04 -6 12 C-4.35 11.34 -2.7 10.68 -1 10 C-1.01160156 9.36191406 -1.02320313 8.72382812 -1.03515625 8.06640625 C-1.04417969 7.24011719 -1.05320312 6.41382812 -1.0625 5.5625 C-1.07410156 4.73878906 -1.08570313 3.91507812 -1.09765625 3.06640625 C-1 1 -1 1 0 0 Z " fill="#3D322C" transform="translate(46,66)"/>
<path d="M0 0 C0 1.32 0 2.64 0 4 C-1.65 4 -3.3 4 -5 4 C-5 4.66 -5 5.32 -5 6 C-3.0399719 7.63676257 -3.0399719 7.63676257 -1 9 C-2.32 9.33 -3.64 9.66 -5 10 C-5.20122585 13.62206536 -4.89165075 15.88433995 -3 19 C-1.55245745 20.44754255 0.03962913 20.55733561 2 21 C2 24 2 24 0.0625 26.375 C-3 28 -3 28 -5.3359375 27.5859375 C-7.61079883 26.8180821 -9.80650003 25.97488888 -12 25 C-11.96744792 22.98177083 -11.93489583 20.96354167 -11.90234375 18.9453125 C-11.87350758 16.91814596 -11.87350758 16.91814596 -13 15 C-11.35 14.67 -9.7 14.34 -8 14 C-8 9.38 -8 4.76 -8 0 C-5.13822943 -1.43088528 -3.06624227 -0.59991697 0 0 Z " fill="#545252" transform="translate(86,70)"/>
<path d="M0 0 C0.598125 0.33 1.19625 0.66 1.8125 1 C4.05386471 2.20787988 4.05386471 2.20787988 7 2 C9.15028304 1.05021103 9.15028304 1.05021103 11 0 C11.66 0.66 12.32 1.32 13 2 C12.8125 4.0625 12.8125 4.0625 12 6 C11.01 6.33 10.02 6.66 9 7 C10.32 8.65 11.64 10.3 13 12 C12.34 13.32 11.68 14.64 11 16 C10.01 16 9.02 16 8 16 C7.34 14.68 6.68 13.36 6 12 C5.34 12 4.68 12 4 12 C3.34 13.32 2.68 14.64 2 16 C0.0625 15.6875 0.0625 15.6875 -2 15 C-2.33 14.01 -2.66 13.02 -3 12 C-2.01 11.01 -1.02 10.02 0 9 C-0.99 7.68 -1.98 6.36 -3 5 C-1.125 1.125 -1.125 1.125 0 0 Z " fill="#34342C" transform="translate(96,30)"/>
<path d="M0 0 C0.33 0 0.66 0 1 0 C0.91560129 8.40602738 0.82071999 16.81184329 0.71247292 25.21759415 C0.66253781 29.12077534 0.61620763 33.02392984 0.578125 36.92724609 C0.54123683 40.69452336 0.49486748 44.46157576 0.44193649 48.22866058 C0.42341127 49.66551517 0.40829637 51.10241793 0.39665604 52.53934479 C0.37976235 54.55269323 0.34959317 56.56591701 0.31884766 58.57910156 C0.30552399 59.72493713 0.29220032 60.87077271 0.2784729 62.05133057 C0.00918425 64.90275059 -0.51805733 66.58265456 -2 69 C-4.31 68.67 -6.62 68.34 -9 68 C-9 65.69 -9 63.38 -9 61 C-7.68 61 -6.36 61 -5 61 C-5 60.34 -5 59.68 -5 59 C-4.34 59 -3.68 59 -3 59 C-3.01160156 57.78441406 -3.02320312 56.56882813 -3.03515625 55.31640625 C-3.04453278 53.73177236 -3.05363313 52.14713682 -3.0625 50.5625 C-3.07087891 49.76005859 -3.07925781 48.95761719 -3.08789062 48.13085938 C-3.0965143 46.08704779 -3.0522815 44.04316098 -3 42 C-2.505 41.505 -2.505 41.505 -2 41 C-1.75266863 36.85723125 -1.75266863 36.85723125 -3 33 C-2.8659375 32.33613281 -2.731875 31.67226562 -2.59375 30.98828125 C-1.74977469 26.74064235 -1.67167464 22.50797851 -1.5 18.1875 C-1.25361346 12.06890094 -0.84561816 6.06731028 0 0 Z " fill="#757362" transform="translate(113,44)"/>
<path d="M0 0 C2.54247553 0.84749184 4.71108972 1.62665383 7 3 C7.33 3.99 7.66 4.98 8 6 C9.32303717 6.3721042 10.65737935 6.70630173 12 7 C12.33 7.66 12.66 8.32 13 9 C11.35 9.66 9.7 10.32 8 11 C8 11.66 8 12.32 8 13 C8.99 12.34 9.98 11.68 11 11 C13.6875 11.375 13.6875 11.375 16 12 C16 12.66 16 13.32 16 14 C15.34 14 14.68 14 14 14 C14 14.66 14 15.32 14 16 C14.99 15.34 15.98 14.68 17 14 C20.1875 14.375 20.1875 14.375 23 15 C22.67 15.99 22.34 16.98 22 18 C23.32 17.67 24.64 17.34 26 17 C26.625 18.875 26.625 18.875 27 21 C26.34 21.66 25.68 22.32 25 23 C22.43623236 21.73167312 19.87397788 20.46043635 17.3125 19.1875 C16.59126953 18.83107422 15.87003906 18.47464844 15.12695312 18.10742188 C11.31859523 16.21193781 7.61126143 14.25792874 4 12 C4.66 11.67 5.32 11.34 6 11 C6.65555119 8.47266765 6.65555119 8.47266765 7 6 C5.68 6.33 4.36 6.66 3 7 C0 3.375 0 3.375 0 0 Z " fill="#6F7684" transform="translate(39,81)"/>
<path d="M0 0 C2.31 0 4.62 0 7 0 C7.83986084 1.93467942 8.67168027 3.87285129 9.5 5.8125 C9.9640625 6.89144531 10.428125 7.97039063 10.90625 9.08203125 C12 12 12 12 12 15 C10.35 15 8.7 15 7 15 C6.79503906 14.36191406 6.59007812 13.72382812 6.37890625 13.06640625 C6.10949219 12.24011719 5.84007812 11.41382813 5.5625 10.5625 C5.29566406 9.73878906 5.02882813 8.91507813 4.75390625 8.06640625 C4.17844506 6.03780412 4.17844506 6.03780412 3 5 C1.68 8.3 0.36 11.6 -1 15 C-2.32 15 -3.64 15 -5 15 C-3.33333333 10 -1.66666667 5 0 0 Z " fill="#383932" transform="translate(38,31)"/>
<path d="M0 0 C2.475 0.495 2.475 0.495 5 1 C5 1.66 5 2.32 5 3 C4.34 3 3.68 3 3 3 C2.9071875 4.423125 2.9071875 4.423125 2.8125 5.875 C2 9 2 9 -0.4375 10.4375 C-3 11 -3 11 -5 10 C-5 9.34 -5 8.68 -5 8 C-5.804375 7.855625 -6.60875 7.71125 -7.4375 7.5625 C-10 7 -10 7 -11 6 C-12.65 7.32 -14.3 8.64 -16 10 C-16.1875 6.625 -16.1875 6.625 -16 3 C-13 1 -13 1 -9.75 1.125 C-5.45133732 2.12802129 -2.70887345 3.65356986 1 6 C0.67 4.02 0.34 2.04 0 0 Z " fill="#B3A496" transform="translate(35,68)"/>
<path d="M0 0 C0.33 1.98 0.66 3.96 1 6 C0.01 6.495 0.01 6.495 -1 7 C-1.433125 8.155 -1.86625 9.31 -2.3125 10.5 C-4 14 -4 14 -6.5 15.125 C-9.60403027 14.96979849 -9.95683324 14.21343066 -12 12 C-14.60611077 11.27802838 -14.60611077 11.27802838 -17 11 C-16.75 9.125 -16.75 9.125 -16 7 C-13.9375 5.75 -13.9375 5.75 -12 5 C-12 5.66 -12 6.32 -12 7 C-9.05272465 6.89830839 -9.05272465 6.89830839 -6 6 C-4.76709799 3.54295238 -4.76709799 3.54295238 -4 1 C-1 0 -1 0 0 0 Z " fill="#75523F" transform="translate(42,71)"/>
<path d="M0 0 C1.65 0 3.3 0 5 0 C6.125 6.625 6.125 6.625 5 10 C2.29120665 11.35439668 -0.00933268 11.06501451 -3 11 C-3 10.34 -3 9.68 -3 9 C-5.31 9 -7.62 9 -10 9 C-9.67 8.34 -9.34 7.68 -9 7 C-9.99 6.67 -10.98 6.34 -12 6 C-11.67 5.01 -11.34 4.02 -11 3 C-9.6078125 3.2784375 -9.6078125 3.2784375 -8.1875 3.5625 C-4.98656229 4.24123881 -4.98656229 4.24123881 -2 3 C-1.34 3.33 -0.68 3.66 0 4 C0 2.68 0 1.36 0 0 Z " fill="#3B2E28" transform="translate(73,74)"/>
<path d="M0 0 C0.66 -0.33 1.32 -0.66 2 -1 C3 2 3 2 3 6 C4.31337396 7.0260734 5.64664105 8.02727325 7 9 C7 9.99 7 10.98 7 12 C5.35 12 3.7 12 2 12 C2 13.32 2 14.64 2 16 C0.68 15.67 -0.64 15.34 -2 15 C-2 12.36 -2 9.72 -2 7 C-3.32 6.34 -4.64 5.68 -6 5 C-6 3.35 -6 1.7 -6 0 C-3 -1 -3 -1 0 0 Z " fill="#5D4D3F" transform="translate(71,62)"/>
<path d="M0 0 C4.95 0 9.9 0 15 0 C15 0.99 15 1.98 15 3 C13.35 3 11.7 3 10 3 C10 6.96 10 10.92 10 15 C8.68 15 7.36 15 6 15 C6 11.04 6 7.08 6 3 C4.02 3 2.04 3 0 3 C0 2.01 0 1.02 0 0 Z " fill="#3C3E35" transform="translate(19,31)"/>
<path d="M0 0 C-0.33 2.97 -0.66 5.94 -1 9 C-5 10 -5 10 -8 9 C-9.1577506 5.52674819 -9.06866652 2.63932552 -9 -1 C-5.23375329 -2.25541557 -3.62811066 -1.37061958 0 0 Z " fill="#BEB099" transform="translate(70,69)"/>
<path d="M0 0 C0.49927002 0.24234375 0.99854004 0.4846875 1.51293945 0.734375 C3.77659084 1.82896872 6.04444564 2.91456089 8.3125 4 C9.09818359 4.3815625 9.88386719 4.763125 10.69335938 5.15625 C11.45068359 5.5171875 12.20800781 5.878125 12.98828125 6.25 C13.68477783 6.58515625 14.38127441 6.9203125 15.09887695 7.265625 C17.12673938 8.18016766 17.12673938 8.18016766 20 8 C20.99 8 21.98 8 23 8 C23 8.66 23 9.32 23 10 C23.99 10.33 24.98 10.66 26 11 C26 12.32 26 13.64 26 15 C19.19734284 13.00393688 13.15489119 10.19371895 6.9375 6.8125 C6.07189453 6.34908203 5.20628906 5.88566406 4.31445312 5.40820312 C2.20618308 4.27835675 0.10156302 3.1422583 -2 2 C-1.34 1.34 -0.68 0.68 0 0 Z " fill="#4D4A4D" transform="translate(47,95)"/>
<path d="M0 0 C-0.99 0.495 -0.99 0.495 -2 1 C-1.34 1.53625 -0.68 2.0725 0 2.625 C2 5 2 5 2.25 8.25 C2.1675 9.1575 2.085 10.065 2 11 C0.02 11.99 0.02 11.99 -2 13 C-3.4606285 10.35261084 -4 9.10551666 -4 6 C-4.99 6.33 -5.98 6.66 -7 7 C-7 6.34 -7 5.68 -7 5 C-6.34 5 -5.68 5 -5 5 C-5 4.34 -5 3.68 -5 3 C-5.99 3.495 -5.99 3.495 -7 4 C-7.46651207 6.12576782 -7.46651207 6.12576782 -7.625 8.5625 C-7.69976562 9.38878906 -7.77453125 10.21507813 -7.8515625 11.06640625 C-7.90054688 11.70449219 -7.94953125 12.34257813 -8 13 C-8.33 13 -8.66 13 -9 13 C-9 10.36 -9 7.72 -9 5 C-9.66 5 -10.32 5 -11 5 C-10.67 3.68 -10.34 2.36 -10 1 C-6.59437148 0.22157062 -3.49234244 -0.09978121 0 0 Z " fill="#866245" transform="translate(53,63)"/>
<path d="M0 0 C0.33 0 0.66 0 1 0 C1.33 3.3 1.66 6.6 2 10 C5.3 10 8.6 10 12 10 C11.01 11.32 10.02 12.64 9 14 C6.94921875 14.20703125 6.94921875 14.20703125 4.6875 13.8125 C3.89472656 13.68746094 3.10195312 13.56242187 2.28515625 13.43359375 C1.15400391 13.21896484 1.15400391 13.21896484 0 13 C-4.55877064 12.05656139 -4.55877064 12.05656139 -9 13 C-9 12.34 -9 11.68 -9 11 C-8.34 11 -7.68 11 -7 11 C-7.33 10.34 -7.66 9.68 -8 9 C-10.31 9.33 -12.62 9.66 -15 10 C-15 9.34 -15 8.68 -15 8 C-13 6.375 -13 6.375 -11 5 C-11.66 4.01 -12.32 3.02 -13 2 C-11.68 2.66 -10.36 3.32 -9 4 C-9 4.66 -9 5.32 -9 6 C-8.443125 6.103125 -7.88625 6.20625 -7.3125 6.3125 C-4.55823422 7.13133577 -2.41272343 8.45853781 0 10 C0 6.7 0 3.4 0 0 Z " fill="#4A4B51" transform="translate(62,84)"/>
<path d="M0 0 C2.6875 0.875 2.6875 0.875 5 2 C4.67 2.7425 4.34 3.485 4 4.25 C2.77217129 7.13883312 2.77217129 7.13883312 3 11 C3.99 11.33 4.98 11.66 6 12 C5.75 13.875 5.75 13.875 5 16 C2.9375 17.25 2.9375 17.25 1 18 C0.01 17.34 -0.98 16.68 -2 16 C-1.67 14.68 -1.34 13.36 -1 12 C-0.34 12 0.32 12 1 12 C0.73343428 9.06556598 0.73343428 9.06556598 0 6 C-0.99 5.34 -1.98 4.68 -3 4 C-3 3.34 -3 2.68 -3 2 C-2.01 1.34 -1.02 0.68 0 0 Z " fill="#CAB591" transform="translate(54,62)"/>
<path d="M0 0 C0.33 0 0.66 0 1 0 C0.67 21.45 0.34 42.9 0 65 C-0.33 65 -0.66 65 -1 65 C-1.02505615 64.10168457 -1.0501123 63.20336914 -1.07592773 62.27783203 C-1.17098693 58.94925131 -1.27022421 55.62085006 -1.37231445 52.29248047 C-1.41566231 50.8511238 -1.45733752 49.40971582 -1.49731445 47.96826172 C-1.55502088 45.89795459 -1.61871371 43.82790568 -1.68359375 41.7578125 C-1.72025146 40.5114502 -1.75690918 39.26508789 -1.79467773 37.98095703 C-1.80289479 35.07363058 -1.80289479 35.07363058 -3 33 C-2.8659375 32.33613281 -2.731875 31.67226562 -2.59375 30.98828125 C-1.74977469 26.74064235 -1.67167464 22.50797851 -1.5 18.1875 C-1.25361346 12.06890094 -0.84561816 6.06731028 0 0 Z " fill="#B4B3A8" transform="translate(113,44)"/>
<path d="M0 0 C0 3 0 3 -2.0625 5.3125 C-5 7 -5 7 -8.8125 6.25 C-9.864375 5.8375 -10.91625 5.425 -12 5 C-11.375 2.5625 -11.375 2.5625 -10 0 C-6.37536784 -1.10314892 -3.58521821 -1.24103707 0 0 Z " fill="#4E5457" transform="translate(88,91)"/>
<path d="M0 0 C1.32 0 2.64 0 4 0 C4 4.95 4 9.9 4 15 C2.68 15 1.36 15 0 15 C0 10.05 0 5.1 0 0 Z " fill="#2C2C26" transform="translate(85,31)"/>
<path d="M0 0 C1.65 0 3.3 0 5 0 C0.72706118 5.23435005 -3.81580806 9.67106815 -9 14 C-10 11 -10 11 -10 9 C-11.45833358 7.37485532 -11.45833358 7.37485532 -13 6 C-10 5 -10 5 -7.625 5.75 C-6.75875 5.8325 -5.8925 5.915 -5 6 C-2.14515489 3.72889272 -2.14515489 3.72889272 0 1 C0 0.67 0 0.34 0 0 Z " fill="#43413F" transform="translate(88,91)"/>
<path d="M0 0 C0 0.66 0 1.32 0 2 C1.65 2 3.3 2 5 2 C5 2.33 5 2.66 5 3 C3.02 3 1.04 3 -1 3 C-1 3.66 -1 4.32 -1 5 C-2.65 5 -4.3 5 -6 5 C-6 4.34 -6 3.68 -6 3 C-7.65 3 -9.3 3 -11 3 C-11 2.34 -11 1.68 -11 1 C-12.32 1.33 -13.64 1.66 -15 2 C-12.44855245 -3.1028951 -4.6079502 -1.08422358 0 0 Z " fill="#3D3E34" transform="translate(68,31)"/>
<path d="M0 0 C2.00720923 0.28674418 4.0085944 0.61866701 6 1 C6 3.31 6 5.62 6 8 C6.66 8.33 7.32 8.66 8 9 C6.35 9.33 4.7 9.66 3 10 C3 8.68 3 7.36 3 6 C1.35 6 -0.3 6 -2 6 C-1.125 1.125 -1.125 1.125 0 0 Z " fill="#5F564A" transform="translate(88,63)"/>
<path d="M0 0 C0.71027344 0.09796875 1.42054687 0.1959375 2.15234375 0.296875 C2.86519531 0.38453125 3.57804687 0.4721875 4.3125 0.5625 C4.89902344 0.72234375 5.48554687 0.8821875 6.08984375 1.046875 C6.41984375 1.706875 6.74984375 2.366875 7.08984375 3.046875 C6.09984375 3.046875 5.10984375 3.046875 4.08984375 3.046875 C4.08984375 4.696875 4.08984375 6.346875 4.08984375 8.046875 C2.43984375 8.046875 0.78984375 8.046875 -0.91015625 8.046875 C-1.90015625 6.066875 -2.89015625 4.086875 -3.91015625 2.046875 C-1.91015625 0.046875 -1.91015625 0.046875 0 0 Z " fill="#4B4138" transform="translate(60.91015625,58.953125)"/>
<path d="M0 0 C2.54247553 0.84749184 4.71108972 1.62665383 7 3 C7.33 3.99 7.66 4.98 8 6 C9.32303717 6.3721042 10.65737935 6.70630173 12 7 C12.33 7.66 12.66 8.32 13 9 C10 11 10 11 7 11 C6.67 10.01 6.34 9.02 6 8 C6.33 7.34 6.66 6.68 7 6 C5.68 6.33 4.36 6.66 3 7 C0 3.375 0 3.375 0 0 Z " fill="#787E89" transform="translate(39,81)"/>
<path d="M0 0 C0.33 0.66 0.66 1.32 1 2 C2.65 2 4.3 2 6 2 C6 3.98 6 5.96 6 8 C4.68 8.33 3.36 8.66 2 9 C1.67 8.34 1.34 7.68 1 7 C-1.52733235 6.34444881 -1.52733235 6.34444881 -4 6 C-3.6875 4.125 -3.6875 4.125 -3 2 C-2.01 1.34 -1.02 0.68 0 0 Z " fill="#8A6350" transform="translate(29,76)"/>
<path d="M0 0 C0.66 0.33 1.32 0.66 2 1 C-0.475 6.94 -0.475 6.94 -3 13 C-1.68 13.33 -0.36 13.66 1 14 C-0.65 14 -2.3 14 -4 14 C-5.26237731 11.47524538 -5.09856404 9.68799534 -5.0625 6.875 C-5.05347656 5.96492188 -5.04445313 5.05484375 -5.03515625 4.1171875 C-5.02355469 3.41851562 -5.01195313 2.71984375 -5 2 C-3.35 2 -1.7 2 0 2 C0 1.34 0 0.68 0 0 Z " fill="#696D62" transform="translate(36,33)"/>
<path d="M0 0 C2.64 0.99 5.28 1.98 8 3 C5.19195732 5.96404505 2.81684226 8.44499019 -1 10 C-1 9.01 -1 8.02 -1 7 C-1.020625 5.96875 -1.04125 4.9375 -1.0625 3.875 C-1 1 -1 1 0 0 Z " fill="#3C3735" transform="translate(95,80)"/>
<path d="M0 0 C0.33 1.32 0.66 2.64 1 4 C-0.98 3.34 -2.96 2.68 -5 2 C-5 2.66 -5 3.32 -5 4 C-6.62626404 5.38232443 -8.2925002 6.71937515 -10 8 C-10.1875 4.625 -10.1875 4.625 -10 1 C-6.1496895 -1.56687367 -4.41430237 -0.83288724 0 0 Z " fill="#ADA69A" transform="translate(29,70)"/>
<path d="M0 0 C0.66 0 1.32 0 2 0 C2.625 2.875 2.625 2.875 3 6 C1 8 1 8 -2 8.1875 C-5 8 -5 8 -7 7 C-6.67 5.68 -6.34 4.36 -6 3 C-4.02 3.495 -4.02 3.495 -2 4 C-1.34 2.68 -0.68 1.36 0 0 Z " fill="#BD9864" transform="translate(70,86)"/>
<path d="M0 0 C-0.66 1.32 -1.32 2.64 -2 4 C-2.99 4 -3.98 4 -5 4 C-5.66 5.32 -6.32 6.64 -7 8 C-7.66 8 -8.32 8 -9 8 C-9.22223194 5.25913944 -9.34781139 3.56036279 -7.875 1.1875 C-5.22464043 -0.49106106 -3.06753576 -0.20450238 0 0 Z " fill="#767D83" transform="translate(83,87)"/>
<path d="M0 0 C0.99 0 1.98 0 3 0 C3 1.32 3 2.64 3 4 C3.66 4 4.32 4 5 4 C5.33 6.31 5.66 8.62 6 11 C4.68 10.67 3.36 10.34 2 10 C2 9.34 2 8.68 2 8 C1.01 7.34 0.02 6.68 -1 6 C-1.25 3.4375 -1.25 3.4375 -1 1 C-0.67 0.67 -0.34 0.34 0 0 Z " fill="#3F342B" transform="translate(88,69)"/>
<path d="M0 0 C2.31243792 -0.02685412 4.6249627 -0.04632841 6.9375 -0.0625 C8.22527344 -0.07410156 9.51304688 -0.08570312 10.83984375 -0.09765625 C14 0 14 0 15 1 C16.07507249 9.29341639 16.07507249 9.29341639 13.8828125 12.7734375 C12.5 14.125 12.5 14.125 10 16 C9.67 15.01 9.34 14.02 9 13 C10 11 10 11 13 10 C13 7.36 13 4.72 13 2 C8.71 1.67 4.42 1.34 0 1 C0 0.67 0 0.34 0 0 Z " fill="#85877C" transform="translate(99,22)"/>
<path d="M0 0 C1.11375 0.185625 2.2275 0.37125 3.375 0.5625 C6.82568861 1.31680657 6.82568861 1.31680657 9 0 C9.12375 1.134375 9.2475 2.26875 9.375 3.4375 C9.58125 4.613125 9.7875 5.78875 10 7 C10.66 7.33 11.32 7.66 12 8 C11.01 8 10.02 8 9 8 C9 7.34 9 6.68 9 6 C6.69 6 4.38 6 2 6 C2.33 5.34 2.66 4.68 3 4 C2.01 3.67 1.02 3.34 0 3 C0 2.01 0 1.02 0 0 Z " fill="#553F32" transform="translate(61,77)"/>
<path d="M0 0 C4.87664009 -0.34833144 7.77050005 0.58314288 12 3 C12 4.65 12 6.3 12 8 C11.01 8 10.02 8 9 8 C8.7525 7.360625 8.505 6.72125 8.25 6.0625 C7.21173571 3.82450832 7.21173571 3.82450832 5.0625 3.4375 C4.0415625 3.2209375 4.0415625 3.2209375 3 3 C1.25 1.4375 1.25 1.4375 0 0 Z " fill="#50473A" transform="translate(60,54)"/>
<path d="M0 0 C0.93065133 2.60582371 1.14917407 3.64198224 0.0625 6.25 C-0.4634375 7.11625 -0.4634375 7.11625 -1 8 C-3.97 7.505 -3.97 7.505 -7 7 C-7.33 5.68 -7.66 4.36 -8 3 C-7.01 3 -6.02 3 -5 3 C-5 3.66 -5 4.32 -5 5 C-4.34 5 -3.68 5 -3 5 C-3 3.68 -3 2.36 -3 1 C-2.01 0.67 -1.02 0.34 0 0 Z " fill="#B7965F" transform="translate(69,71)"/>
<path d="M0 0 C0 1.32 0 2.64 0 4 C-2.31 4.33 -4.62 4.66 -7 5 C-7.33 3.35 -7.66 1.7 -8 0 C-5.13822943 -1.43088528 -3.06624227 -0.59991697 0 0 Z " fill="#BCAE91" transform="translate(86,70)"/>
<path d="M0 0 C1.65 1.65 3.3 3.3 5 5 C4.01 6.485 4.01 6.485 3 8 C2.34 8 1.68 8 1 8 C0.67 8.99 0.34 9.98 0 11 C-0.33 11 -0.66 11 -1 11 C-1.02688151 9.35425434 -1.04634123 7.70838587 -1.0625 6.0625 C-1.07410156 5.14597656 -1.08570312 4.22945312 -1.09765625 3.28515625 C-1 1 -1 1 0 0 Z " fill="#626455" transform="translate(92,34)"/>
<path d="M0 0 C0.66 0 1.32 0 2 0 C3.35439668 2.70879335 3.06501451 5.00933268 3 8 C1.02 8 -0.96 8 -3 8 C-3 5.69 -3 3.38 -3 1 C-2.01 1.33 -1.02 1.66 0 2 C0 1.34 0 0.68 0 0 Z " fill="#A0A79C" transform="translate(108,103)"/>
<path d="M0 0 C2.875 0.875 2.875 0.875 4.875 2.875 C4.0625 4.8125 4.0625 4.8125 2.875 6.875 C1.885 7.205 0.895 7.535 -0.125 7.875 C-0.455 5.895 -0.785 3.915 -1.125 1.875 C-3.105 2.535 -5.085 3.195 -7.125 3.875 C-3.94756169 -0.15790247 -3.94756169 -0.15790247 0 0 Z " fill="#3A322F" transform="translate(66.125,96.125)"/>
<path d="M0 0 C0.99 0.33 1.98 0.66 3 1 C2.34 1 1.68 1 1 1 C1.95865509 3.33075929 1.95865509 3.33075929 5 5 C4.01 5.33 3.02 5.66 2 6 C1.67 6.99 1.34 7.98 1 9 C-0.32 8.34 -1.64 7.68 -3 7 C-2.67 5.35 -2.34 3.7 -2 2 C-1.34 2 -0.68 2 0 2 C0 1.34 0 0.68 0 0 Z " fill="#A47B5D" transform="translate(24,72)"/>
<path d="M0 0 C2.31 0 4.62 0 7 0 C6.75 1.875 6.75 1.875 6 4 C3.9375 5.25 3.9375 5.25 2 6 C1.01 5.34 0.02 4.68 -1 4 C-0.67 2.68 -0.34 1.36 0 0 Z " fill="#BFA785" transform="translate(53,74)"/>
<path d="M0 0 C-0.33 1.65 -0.66 3.3 -1 5 C-1.99 5.33 -2.98 5.66 -4 6 C-4 5.34 -4 4.68 -4 4 C-3.34 4 -2.68 4 -2 4 C-2 3.34 -2 2.68 -2 2 C-2.99 2.495 -2.99 2.495 -4 3 C-4.46651207 5.12576782 -4.46651207 5.12576782 -4.625 7.5625 C-4.69976562 8.38878906 -4.77453125 9.21507813 -4.8515625 10.06640625 C-4.90054688 10.70449219 -4.94953125 11.34257813 -5 12 C-5.33 12 -5.66 12 -6 12 C-6 9.36 -6 6.72 -6 4 C-6.66 4 -7.32 4 -8 4 C-7.67 2.68 -7.34 1.36 -7 0 C-2.25 -1.125 -2.25 -1.125 0 0 Z " fill="#5F5347" transform="translate(50,64)"/>
<path d="M0 0 C4.75 0.875 4.75 0.875 7 2 C7 4.64 7 7.28 7 10 C6.34 10 5.68 10 5 10 C4.34 9.01 3.68 8.02 3 7 C2.34 6.34 1.68 5.68 1 5 C1.66 5 2.32 5 3 5 C2.2575 4.319375 2.2575 4.319375 1.5 3.625 C0 2 0 2 0 0 Z " fill="#9F7F5C" transform="translate(37,66)"/>
<path d="M0 0 C0.33 0 0.66 0 1 0 C1.33 3.3 1.66 6.6 2 10 C5.3 10 8.6 10 12 10 C11.01 11.32 10.02 12.64 9 14 C6.73828125 14.171875 6.73828125 14.171875 4.3125 13.75 C3.50425781 13.62109375 2.69601563 13.4921875 1.86328125 13.359375 C1.24839844 13.24078125 0.63351563 13.1221875 0 13 C-1.06671952 9.79984144 -0.94845472 8.11455706 -0.5625 4.8125 C-0.46066406 3.91144531 -0.35882813 3.01039062 -0.25390625 2.08203125 C-0.17011719 1.39496094 -0.08632813 0.70789063 0 0 Z " fill="#694D39" transform="translate(62,84)"/>
<path d="M0 0 C1.65 0.33 3.3 0.66 5 1 C5 1.66 5 2.32 5 3 C4.34 3 3.68 3 3 3 C2.67 4.98 2.34 6.96 2 9 C0.35 9 -1.3 9 -3 9 C-2.67 8.01 -2.34 7.02 -2 6 C-1.01 6 -0.02 6 1 6 C0.67 4.02 0.34 2.04 0 0 Z " fill="#C5BBAD" transform="translate(35,68)"/>
<path d="M0 0 C0.33 0.66 0.66 1.32 1 2 C2.64363134 2.72159424 4.31050386 3.39351421 6 4 C6 5.65 6 7.3 6 9 C4.35 8.67 2.7 8.34 1 8 C0.67 5.36 0.34 2.72 0 0 Z " fill="#936C48" transform="translate(51,76)"/>
<path d="M0 0 C1.32 0 2.64 0 4 0 C4 0.66 4 1.32 4 2 C5.65 2 7.3 2 9 2 C9 2.99 9 3.98 9 5 C8.01 4.67 7.02 4.34 6 4 C5.67 4.66 5.34 5.32 5 6 C1.535 4.02 1.535 4.02 -2 2 C-1.34 1.34 -0.68 0.68 0 0 Z " fill="#55443F" transform="translate(21,80)"/>
<path d="M0 0 C1.65 0 3.3 0 5 0 C5 0.66 5 1.32 5 2 C6.32 2.33 7.64 2.66 9 3 C7.35 4.65 5.7 6.3 4 8 C3.566875 7.0409375 3.566875 7.0409375 3.125 6.0625 C2.17176549 3.84793921 2.17176549 3.84793921 0 3 C0 2.01 0 1.02 0 0 Z " fill="#96877B" transform="translate(60,80)"/>
<path d="M0 0 C0.33 0.66 0.66 1.32 1 2 C3.02463255 2.65213292 3.02463255 2.65213292 5 3 C4.01 3 3.02 3 2 3 C2 4.32 2 5.64 2 7 C1.01 7 0.02 7 -1 7 C-1.33 7.66 -1.66 8.32 -2 9 C-2.33 7.35 -2.66 5.7 -3 4 C-2.34 3.67 -1.68 3.34 -1 3 C-0.67 2.01 -0.34 1.02 0 0 Z " fill="#8E7962" transform="translate(59,65)"/>
<path d="M0 0 C0.625 1.875 0.625 1.875 1 4 C0.34 4.66 -0.32 5.32 -1 6 C-3.64 4.68 -6.28 3.36 -9 2 C-3 0 -3 0 0 0 Z " fill="#5F626C" transform="translate(65,98)"/>
<path d="M0 0 C1.11375 0.3403125 1.11375 0.3403125 2.25 0.6875 C1.59 2.0075 0.93 3.3275 0.25 4.6875 C-2.06 4.0275 -4.37 3.3675 -6.75 2.6875 C-4.29511132 0.41445492 -3.41240272 -0.38777304 0 0 Z " fill="#68727C" transform="translate(82.75,93.3125)"/>
<path d="M0 0 C0.33 1.98 0.66 3.96 1 6 C-1.31 6.33 -3.62 6.66 -6 7 C-5.1875 4.0625 -5.1875 4.0625 -4 1 C-1 0 -1 0 0 0 Z " fill="#855E44" transform="translate(42,71)"/>
<path d="M0 0 C4.75 0.75 4.75 0.75 7 3 C6.34 3 5.68 3 5 3 C5 3.66 5 4.32 5 5 C2.03 4.505 2.03 4.505 -1 4 C-0.67 2.68 -0.34 1.36 0 0 Z " fill="#3F352F" transform="translate(73,64)"/>
<path d="M0 0 C2.625 0.375 2.625 0.375 5 1 C5 1.66 5 2.32 5 3 C4.34 3 3.68 3 3 3 C3 3.66 3 4.32 3 5 C1.68 5 0.36 5 -1 5 C-1.33 4.01 -1.66 3.02 -2 2 C-1.34 1.34 -0.68 0.68 0 0 Z " fill="#3F3328" transform="translate(59,59)"/>
<path d="M0 0 C0.763125 0.309375 1.52625 0.61875 2.3125 0.9375 C4.18789677 1.67893593 6.08684652 2.36228217 8 3 C7.67 3.99 7.34 4.98 7 6 C4.5625 5.625 4.5625 5.625 2 5 C1.67 4.34 1.34 3.68 1 3 C0.34 2.67 -0.32 2.34 -1 2 C-0.67 1.34 -0.34 0.68 0 0 Z " fill="#6F6456" transform="translate(60,55)"/>
<path d="M0 0 C0.66 0 1.32 0 2 0 C2.33 1.65 2.66 3.3 3 5 C2.01 5.66 1.02 6.32 0 7 C-0.99 6.67 -1.98 6.34 -3 6 C-2.01 4.02 -1.02 2.04 0 0 Z " fill="#C7AB7C" transform="translate(70,86)"/>
<path d="M0 0 C0.99 0.33 1.98 0.66 3 1 C2.34 1 1.68 1 1 1 C1.33 1.99 1.66 2.98 2 4 C1.72428861 6.00875442 1.39764263 8.01178687 1 10 C0.34 9.67 -0.32 9.34 -1 9 C-1.09765625 2.84765625 -1.09765625 2.84765625 -1 1 C-0.67 0.67 -0.34 0.34 0 0 Z " fill="#817975" transform="translate(50,63)"/>
<path d="M0 0 C3.465 1.98 3.465 1.98 7 4 C5.1875 5.0625 5.1875 5.0625 3 6 C2.01 5.67 1.02 5.34 0 5 C0 3.35 0 1.7 0 0 Z " fill="#887A68" transform="translate(78,74)"/>
<path d="M0 0 C1.32 0 2.64 0 4 0 C3.43628586 3.26954202 2.50037734 4.82575883 0 7 C0 4.69 0 2.38 0 0 Z " fill="#BDB097" transform="translate(19,71)"/>
<path d="M0 0 C0.33 0 0.66 0 1 0 C1.85298376 3.67387495 2.10789471 7.0447393 2.0625 10.8125 C2.05347656 11.78832031 2.04445313 12.76414062 2.03515625 13.76953125 C2.02355469 14.50558594 2.01195313 15.24164063 2 16 C1.67 16 1.34 16 1 16 C0.93941406 15.37351562 0.87882812 14.74703125 0.81640625 14.1015625 C0.73261719 13.28429687 0.64882812 12.46703125 0.5625 11.625 C0.48128906 10.81289062 0.40007812 10.00078125 0.31640625 9.1640625 C0.10909886 6.95727195 0.10909886 6.95727195 -1 5 C-0.72057545 3.32345271 -0.39171753 1.65391846 0 0 Z " fill="#999587" transform="translate(111,72)"/>
<path d="M0 0 C0.99 0 1.98 0 3 0 C2.67 1.65 2.34 3.3 2 5 C1.01 5 0.02 5 -1 5 C-1.33 4.01 -1.66 3.02 -2 2 C-1.34 1.34 -0.68 0.68 0 0 Z " fill="#805D4B" transform="translate(32,80)"/>
<path d="M0 0 C0.66 0.33 1.32 0.66 2 1 C2 1.66 2 2.32 2 3 C1.01 3.33 0.02 3.66 -1 4 C-0.67 4.99 -0.34 5.98 0 7 C-0.99 6.67 -1.98 6.34 -3 6 C-3 4.35 -3 2.7 -3 1 C-2.01 0.67 -1.02 0.34 0 0 Z " fill="#7E7265" transform="translate(68,61)"/>
<path d="M0 0 C0.33 1.32 0.66 2.64 1 4 C-0.32 4.99 -1.64 5.98 -3 7 C-3.99 6.34 -4.98 5.68 -6 5 C-5.67 4.34 -5.34 3.68 -5 3 C-3.35 3 -1.7 3 0 3 C0 2.01 0 1.02 0 0 Z " fill="#665D50" transform="translate(86,71)"/>
<path d="M0 0 C0.61875 0.33 1.2375 0.66 1.875 1 C3.91018344 2.14193235 3.91018344 2.14193235 6 2 C5.67 3.65 5.34 5.3 5 7 C4.01 7.33 3.02 7.66 2 8 C2 7.34 2 6.68 2 6 C2.66 6 3.32 6 4 6 C4 5.34 4 4.68 4 4 C2.68 3.67 1.36 3.34 0 3 C0 2.01 0 1.02 0 0 Z " fill="#454347" transform="translate(40,85)"/>
<path d="M0 0 C2.475 0.495 2.475 0.495 5 1 C5 1.66 5 2.32 5 3 C3 4.625 3 4.625 1 6 C0.67 4.02 0.34 2.04 0 0 Z " fill="#CCC2A8" transform="translate(35,68)"/>
<path d="M0 0 C2.4375 0.75 2.4375 0.75 5 2 C5.8125 4.125 5.8125 4.125 6 6 C5.01 5.67 4.02 5.34 3 5 C3 4.34 3 3.68 3 3 C2.01 3.33 1.02 3.66 0 4 C0 2.68 0 1.36 0 0 Z " fill="#87786B" transform="translate(72,68)"/>
<path d="M0 0 C0.66 0.99 1.32 1.98 2 3 C1.67 3.99 1.34 4.98 1 6 C-0.32 5.67 -1.64 5.34 -3 5 C-1.125 1.125 -1.125 1.125 0 0 Z " fill="#6B5E4F" transform="translate(72,61)"/>
<path d="M0 0 C2.475 0.99 2.475 0.99 5 2 C2 4 2 4 -0.6875 3.625 C-1.450625 3.41875 -2.21375 3.2125 -3 3 C-2.01 2.01 -1.02 1.02 0 0 Z " fill="#A69E92" transform="translate(54,62)"/>
</svg>
